<svg width="40" height="40" viewBox="0 0 40 40" fill="none" xmlns="http://www.w3.org/2000/svg">
<path d="M19.9829 2.5874C21.0044 2.5874 22.0039 2.73663 22.7573 3.01807L31.0747 6.13525H31.0757C33.2952 6.96202 35.0503 9.50761 35.0503 11.8667V24.2495C35.0503 25.3367 34.7061 26.5895 34.1235 27.7485C33.5775 28.8348 32.8401 29.8024 32.0308 30.4556L31.8677 30.5825L24.7007 35.9321L24.6948 35.937C23.4121 36.9261 21.7235 37.4331 19.9995 37.4331C18.2768 37.433 16.5844 36.9263 15.2642 35.9478H15.2632L8.09912 30.5991C7.22641 29.9484 6.42508 28.9208 5.84229 27.7593C5.25944 26.5976 4.9165 25.3447 4.9165 24.2661V11.8667C4.9165 9.50749 6.67144 6.96189 8.89111 6.13525H8.89209L17.2085 3.01807C17.9619 2.73655 18.9613 2.58743 19.9829 2.5874ZM20.0005 4.08545C19.2019 4.08763 18.375 4.19487 17.7417 4.43115L17.7407 4.43213L9.42432 7.54834H9.42334C8.59584 7.85993 7.85461 8.52245 7.32373 9.29053C6.79265 10.0589 6.43311 10.9898 6.43311 11.8833V24.2661C6.43311 25.1606 6.74368 26.1893 7.20068 27.1011C7.65757 28.0126 8.29292 28.8726 9.00049 29.4009L16.1675 34.7505C17.2293 35.5444 18.6279 35.9252 20.0015 35.9253C21.3754 35.9253 22.7777 35.5442 23.8472 34.7515L23.8491 34.7505L31.0151 29.4009L31.0161 29.3999C31.7309 28.8638 32.3664 28.0049 32.8218 27.0942C33.2771 26.1836 33.5835 25.1596 33.5835 24.2661V11.8667C33.5835 10.9807 33.2231 10.0539 32.6929 9.28662C32.1624 8.51907 31.4218 7.85386 30.5972 7.53369L30.5923 7.53174L22.2749 4.41455L22.2661 4.41162C21.628 4.18643 20.7999 4.08327 20.0005 4.08545Z" fill="#FAFAFA" stroke="#FAFAFA"/>
<path d="M24.4038 14.77C24.6919 14.4822 25.1754 14.482 25.4634 14.77C25.7513 15.058 25.7511 15.5415 25.4634 15.8296L18.2964 22.9966C18.1451 23.1478 17.9573 23.2163 17.7661 23.2163C17.5751 23.2162 17.388 23.1477 17.2368 22.9966L14.5532 20.313C14.2654 20.0249 14.2652 19.5414 14.5532 19.2534C14.8412 18.9654 15.3247 18.9655 15.6128 19.2534L17.7661 21.4067L18.1206 21.0532L24.4038 14.77Z" fill="#FAFAFA" stroke="#FAFAFA"/>
</svg>
