<svg width="15" height="15" viewBox="0 0 15 15" fill="none" xmlns="http://www.w3.org/2000/svg">
<path d="M13.9459 6.83189C15.0166 6.022 14.4439 4.31533 13.1013 4.31533H10.6722C10.0583 4.31533 9.51596 3.91536 9.33463 3.32884L8.61049 0.98653C8.20385 -0.328787 6.34205 -0.328787 5.93541 0.98653L5.21126 3.32884C5.02994 3.91536 4.48764 4.31533 3.87373 4.31533H1.40256C0.064368 4.31533 -0.511132 6.01289 0.551167 6.82669L2.66764 8.44808C3.1318 8.80365 3.32609 9.41024 3.15491 9.96932L2.38591 12.4809C1.98711 13.7834 3.49462 14.8305 4.57596 14.0021L6.42156 12.5882C6.92392 12.2034 7.62198 12.2034 8.12434 12.5882L9.95364 13.9896C11.0365 14.8192 12.5455 13.768 12.1426 12.4648L11.3629 9.94286C11.1889 9.37991 11.3859 8.76824 11.8559 8.41278L13.9459 6.83189Z" fill="#FFAD33"/>
</svg>
